Coordinates
version=1
nRows=22
nColumns=24
inDegrees=yes

Units are S.I. units (second, meters, Newtons, ...)
Angles are in degrees.

endheader
time	pelvis_tilt	pelvis_list	pelvis_rotation	pelvis_tx	pelvis_ty	pelvis_tz	hip_flexion_r	hip_adduction_r	hip_rotation_r	knee_angle_r	ankle_angle_r	subtalar_angle_r	mtp_angle_r	hip_flexion_l	hip_adduction_l	hip_rotation_l	knee_angle_l	ankle_angle_l	subtalar_angle_l	mtp_angle_l	lumbar_extension	lumbar_bending	lumbar_rotation
      5.83000000	     -1.24687738	      0.23926449	     -0.30700799	      1.38783262	      1.03848903	     -0.15836299	     -4.63834811	      4.44085179	     13.74388304	     -4.53171379	     11.27260702	    -17.76410357	      0.00000000	     26.21988875	     -3.48042232	    -14.31244528	    -49.73344117	      6.65077854	     -6.57530864	      0.00000000	    -11.45216810	     -1.95483986	      2.78146482
      5.83500000	     -1.32525736	      0.27582991	     -0.36250194	      1.39351198	      1.03819839	     -0.15864189	     -5.03507723	      4.35255228	     13.82364131	     -4.25196827	     11.21767454	    -17.87515747	      0.00000000	     26.44165073	     -3.32821594	    -14.36954155	    -48.24243060	      7.00338938	     -6.36342648	      0.00000000	    -11.39324162	     -2.03392626	      2.89357806
      5.84000000	     -1.22654491	      0.34597241	     -0.47713198	      1.39924486	      1.03810406	     -0.15889298	     -5.64407276	      4.21105147	     14.15330949	     -3.93558236	     11.05078951	    -18.21096807	      0.00000000	     26.41911711	     -3.16087083	    -14.51761830	    -46.66718786	      7.30826598	     -6.20892984	      0.00000000	    -11.54891383	     -2.14865238	      3.06223919
      5.84500000	     -1.34250632	      0.30334883	     -0.47573484	      1.40494868	      1.03761541	     -0.15926500	     -5.96928125	      4.21610035	     14.12317950	     -3.72266483	     11.04273354	    -18.24527907	      0.00000000	     26.65599217	     -3.06137865	    -14.48693798	    -45.12516075	      7.63848105	     -5.91636989	      0.00000000	    -11.44393631	     -2.12538223	      3.12145954
      5.85000000	     -1.31725524	      0.32023073	     -0.53430602	      1.41075085	      1.03728327	     -0.15962969	     -6.46146003	      4.13862446	     14.28164659	     -3.49319999	     11.01756854	    -18.38385702	      0.00000000	     26.67854781	     -2.91477897	    -14.54678222	    -43.49114619	      7.92809133	     -5.66643702	      0.00000000	    -11.50306901	     -2.16658988	      3.22005533
      5.85500000	     -1.42635672	      0.24302910	     -0.52777705	      1.41651256	      1.03669094	     -0.16004719	     -6.77414086	      4.18085611	     14.26078125	     -3.33016827	     11.03352324	    -18.40131649	      0.00000000	     26.86017107	     -2.83465262	    -14.47706807	    -41.87411798	      8.19899421	     -5.33281463	      0.00000000	    -11.40366375	     -2.09929112	      3.28920128
      5.86000000	     -1.50814005	      0.17384977	     -0.52863030	      1.42233809	      1.03608322	     -0.16049329	     -7.11331319	      4.20958871	     14.28231083	     -3.18440210	     11.08117142	    -18.41444043	      0.00000000	     26.97825063	     -2.74221144	    -14.41628233	    -40.20843153	      8.44485834	     -4.98363421	      0.00000000	    -11.32910937	     -2.03487235	      3.35665668
      5.86500000	     -1.40961873	      0.14266254	     -0.57333058	      1.42823749	      1.03570580	     -0.16093840	     -7.65338955	      4.18273003	     14.35882085	     -3.02757961	     11.12431588	    -18.42102721	      0.00000000	     26.84937627	     -2.61941737	    -14.42149238	    -38.46513491	      8.63860763	     -4.66664509	      0.00000000	    -11.47235187	     -2.01510177	      3.44951387
      5.87000000	     -1.51770460	      0.01869287	     -0.56004103	      1.43406704	      1.03495961	     -0.16142638	     -7.93713821	      4.27403907	     14.37271781	     -2.94192237	     11.18779426	    -18.41033658	      0.00000000	     26.96355471	     -2.56243256	    -14.28115628	    -36.75452187	      8.80380093	     -4.28320957	      0.00000000	    -11.37367992	     -1.88780861	      3.51620916
      5.87500000	     -1.59407925	     -0.09511487	     -0.55596580	      1.43996568	      1.03422667	     -0.16193505	     -8.25088532	      4.35053526	     14.39407401	     -2.87332003	     11.27264410	    -18.36902401	      0.00000000	     27.01089468	     -2.49621137	    -14.15780166	    -35.00560693	      8.93444772	     -3.87322345	      0.00000000	    -11.30534400	     -1.76971134	      3.58173398
      5.88000000	     -1.48611462	     -0.16446756	     -0.59002867	      1.44594423	      1.03375477	     -0.16244759	     -8.76368242	      4.36497122	     14.38307070	     -2.80570152	     11.41510890	    -18.18894737	      0.00000000	     26.80975744	     -2.39314217	    -14.09397730	    -33.18882463	      8.99003758	     -3.49059986	      0.00000000	    -11.45570979	     -1.70342800	      3.67412892
      5.88500000	     -1.59540486	     -0.33634013	     -0.57989892	      1.45183655	      1.03289023	     -0.16302123	     -9.01703439	      4.50250430	     14.43963445	     -2.79474012	     11.49508715	    -18.14892617	      0.00000000	     26.86930847	     -2.37201377	    -13.90339603	    -31.42270812	      9.02377590	     -3.08478988	      0.00000000	    -11.35055535	     -1.50912550	      3.76003592
      5.89000000	     -1.59713288	     -0.42399608	     -0.59863370	      1.45788652	      1.03218255	     -0.16356082	     -9.39387614	      4.54117080	     14.43580813	     -2.77897003	     11.66881891	    -17.95278941	      0.00000000	     26.76012142	     -2.28400915	    -13.78492193	    -29.60778708	      9.01814814	     -2.58609200	      0.00000000	    -11.36223347	     -1.42012176	      3.80957826
      5.89500000	     -1.56092088	     -0.55634272	     -0.62641445	      1.46386226	      1.03149324	     -0.16415109	     -9.77986591	      4.62499960	     14.43313705	     -2.82409870	     11.87327807	    -17.70511436	      0.00000000	     26.60063207	     -2.22671381	    -13.59477557	    -27.78359368	      8.95081461	     -2.17098814	      0.00000000	    -11.43885809	     -1.27469195	      3.91507423
      5.90000000	     -1.67028278	     -0.75828458	     -0.63758843	      1.46984974	      1.03055518	     -0.16474355	    -10.00926520	      4.79048962	     14.50145910	     -2.87167940	     11.93473497	    -17.63948038	      0.00000000	     26.60857054	     -2.24128215	    -13.35853386	    -26.00842964	      8.87272563	     -1.71650736	      0.00000000	    -11.33230970	     -1.04637143	      4.03047285
      5.90500000	     -1.57828579	     -0.84774167	     -0.68161626	      1.47595344	      1.02991602	     -0.16539505	    -10.43464878	      4.81863312	     14.43433842	     -2.97418621	     12.25191733	    -17.20718176	      0.00000000	     26.33693670	     -2.14253466	    -13.16179213	    -24.16268960	      8.73527295	     -1.27410268	      0.00000000	    -11.46845655	     -0.94393433	      4.12619152
      5.91000000	     -1.68316174	     -1.05385832	     -0.69905269	      1.48203696	      1.02893803	     -0.16598265	    -10.65518163	      4.98692470	     14.52455150	     -3.06445484	     12.32531683	    -17.11866735	      0.00000000	     26.30870977	     -2.16779872	    -12.87368043	    -22.41168688	      8.62022799	     -0.75944504	      0.00000000	    -11.35790455	     -0.71821050	      4.23601239
      5.91500000	     -1.56465591	     -1.17295333	     -0.74327099	      1.48819572	      1.02830269	     -0.16667714	    -11.08000076	      5.04577082	     14.37493163	     -3.22994873	     12.67812037	    -16.56465683	      0.00000000	     25.97754065	     -2.09086107	    -12.56141524	    -20.58443929	      8.41982100	     -0.38352664	      0.00000000	    -11.52635901	     -0.58205553	      4.34256744
      5.92000000	     -1.55803666	     -1.34131436	     -0.77440679	      1.49437132	      1.02747033	     -0.16735302	    -11.38522081	      5.16194989	     14.34535710	     -3.40252863	     12.91307867	    -16.19187307	      0.00000000	     25.77629630	     -2.07250163	    -12.19320520	    -18.82524027	      8.24302831	      0.05059583	      0.00000000	    -11.55438668	     -0.38754095	      4.44681382
      5.92500000	     -1.54903722	     -1.51333703	     -0.81700597	      1.50060709	      1.02663449	     -0.16798637	    -11.68207441	      5.28196184	     14.32051843	     -3.60638335	     13.15344183	    -15.79163860	      0.00000000	     25.54996462	     -2.06668019	    -11.77188995	    -17.08158509	      8.04108678	      0.43605897	      0.00000000	    -11.57636844	     -0.20311916	      4.55269576
      5.93000000	     -1.51905633	     -1.66430407	     -0.84685935	      1.50692016	      1.02581869	     -0.16867867	    -11.99412966	      5.37772024	     14.22180678	     -3.82895201	     13.43246076	    -15.30489222	      0.00000000	     25.27784252	     -2.03739869	    -11.29038096	    -15.35716564	      7.82608368	      0.78915068	      0.00000000	    -11.62366627	     -0.02769664	      4.64772430
      5.93500000	     -1.52426594	     -1.88048409	     -0.91840216	      1.51317035	      1.02494212	     -0.16925089	    -12.24993350	      5.53848077	     14.27967500	     -4.09325623	     13.65357890	    -14.90481349	      0.00000000	     25.04110963	     -2.10630270	    -10.77063841	    -13.69129243	      7.60465390	      1.09176005	      0.00000000	    -11.64062955	      0.20526535	      4.77338141
